<svg version="1.1" id="Layer_1" xmlns="http://www.w3.org/2000/svg" xmlns:xlink="http://www.w3.org/1999/xlink" x="0px" y="0px"
	 width="100%" viewBox="0 0 500 500" enable-background="new 0 0 500 500" xml:space="preserve">
<path fill="#000000" opacity="1.000000" stroke="none" 
	d="
M501.000000,197.000000 
	C501.000000,297.333313 500.977478,397.166656 501.095551,496.999817 
	C501.099609,500.423767 500.423828,501.096954 497.000000,501.094696 
	C333.000092,500.986237 169.000137,500.986206 5.000253,501.094635 
	C1.576954,501.096893 0.903020,500.424194 0.905285,497.000122 
	C1.013782,333.000214 1.013754,169.000259 0.905355,5.000372 
	C0.903092,1.577348 1.575412,0.903005 4.999751,0.905271 
	C168.999634,1.013778 332.999603,1.013757 496.999512,0.905371 
	C500.422272,0.903109 501.103821,1.574141 501.096771,4.999769 
	C500.964935,68.832977 501.000000,132.666519 501.000000,197.000000 
z"/>
<path fill="#FEFFFF" opacity="1.000000" stroke="none" 
	d="
M95.627457,421.148438 
	C73.089035,400.949982 55.880470,377.321228 42.896118,350.097015 
	C44.972359,348.106720 47.553532,348.610291 50.005222,348.598694 
	C67.992638,348.513519 85.980850,348.685852 103.967606,348.472504 
	C105.739937,348.451508 108.178429,349.151886 109.140442,347.561920 
	C110.189842,345.827484 108.076416,344.295502 107.145477,342.817230 
	C86.751892,310.433685 78.007797,274.966278 80.829575,237.013397 
	C83.582405,199.987946 97.927200,167.365189 122.269829,139.358093 
	C150.279526,107.131920 185.638107,88.121666 227.909134,82.098259 
	C234.652481,81.137367 241.438629,80.515511 248.300095,80.527809 
	C298.099823,80.617073 347.899780,80.570412 397.699646,80.590843 
	C400.181793,80.591858 402.702576,80.267647 405.526428,81.272705 
	C412.786987,85.101448 417.490570,91.187828 422.533386,96.768295 
	C437.306335,113.116211 449.386292,131.326355 458.994659,151.564728 
	C459.017365,154.417297 456.975586,154.085754 455.467468,154.303329 
	C453.490448,154.588562 451.474396,154.434799 449.474976,154.434875 
	C383.976105,154.437759 318.477203,154.417847 252.978333,154.444046 
	C210.914932,154.460876 175.036957,177.872253 160.745285,217.255936 
	C147.307190,254.287445 153.867722,288.449982 181.276260,317.723083 
	C197.328812,334.867676 217.246811,344.647736 240.430679,347.142883 
	C266.949677,349.996948 290.952698,343.230408 311.945282,326.393250 
	C322.805511,317.682800 330.889343,306.792816 337.495911,294.713593 
	C340.056885,290.031250 339.629669,289.457703 334.204803,289.451294 
	C306.705353,289.418823 279.198761,289.048920 251.708176,289.541779 
	C222.307831,290.068878 202.699539,257.623383 217.967987,232.061996 
	C226.043640,218.542282 238.557755,212.613373 253.993423,212.588074 
	C297.325928,212.517075 340.658569,212.562744 383.991150,212.564255 
	C392.824310,212.564560 401.658234,212.485336 410.490387,212.598541 
	C416.520081,212.675797 417.841492,213.707794 418.840973,219.598969 
	C426.732880,266.114716 417.794006,309.043091 391.183777,348.133698 
	C374.988495,371.924622 353.761322,390.203033 328.270416,403.192627 
	C305.916626,414.583618 282.095886,421.384308 256.735748,421.418671 
	C209.903320,421.482178 163.070724,421.436615 116.238197,421.437286 
	C111.574440,421.437378 106.913078,421.317291 102.283791,422.183258 
	C100.147209,422.582977 97.950645,422.602203 95.627457,421.148438 
z"/>
<path fill="#A6A6A6" opacity="1.000000" stroke="none" 
	d="
M95.330986,421.192139 
	C144.936310,419.470490 194.577972,420.163422 244.208740,420.391541 
	C271.820953,420.518433 298.127380,415.879272 323.099365,404.113159 
	C343.684570,394.413971 361.496490,380.976257 376.726135,364.044739 
	C395.696045,342.955139 408.549225,318.648102 415.386993,291.165680 
	C421.423492,266.903870 421.631775,242.488113 417.102264,217.944702 
	C416.568298,215.051392 415.525726,214.054596 412.609619,214.058350 
	C358.627380,214.128036 304.644257,213.951538 250.663162,214.209137 
	C231.439392,214.300873 215.528839,229.714432 214.092926,248.482651 
	C212.665298,267.142578 225.818176,284.074005 244.711258,287.638458 
	C247.784500,288.218262 251.014389,288.079163 254.172073,288.082520 
	C281.829712,288.111755 309.487976,288.191895 337.144379,288.006683 
	C341.900604,287.974823 341.863708,289.228943 340.082733,292.932922 
	C321.862946,330.825317 283.702606,352.858215 241.477859,348.810120 
	C196.797043,344.526550 159.510025,309.232300 153.723297,263.996674 
	C147.483276,215.217728 178.321213,168.773880 226.138092,156.510361 
	C234.687256,154.317764 243.384796,153.084000 252.249939,153.087051 
	C319.061462,153.110046 385.872986,153.102173 452.684509,153.077209 
	C454.657654,153.076477 456.684021,153.485016 458.844299,152.281281 
	C466.470795,165.379013 471.128326,179.876984 474.951324,194.647919 
	C480.411133,215.742996 482.580627,237.257675 481.775818,258.999634 
	C480.650085,289.412384 473.910339,318.535248 461.297943,346.336395 
	C448.339935,374.899353 430.441315,399.810852 407.387238,421.004578 
	C380.203430,445.994812 348.687439,463.421753 313.238190,473.511627 
	C298.537140,477.695953 283.462677,480.011963 268.112946,481.219177 
	C246.973419,482.881775 226.011597,481.879028 205.457718,477.563690 
	C169.024872,469.914520 135.696152,455.014343 106.723778,431.178223 
	C102.885017,428.020081 99.142067,424.745514 95.330986,421.192139 
z"/>
<path fill="#024BAC" opacity="1.000000" stroke="none" 
	d="
M405.921265,81.128479 
	C403.610382,81.575859 401.301361,81.828629 398.992035,81.831146 
	C348.353973,81.886414 297.680084,80.722382 247.086716,82.242966 
	C181.217606,84.222664 131.473038,115.400650 101.064644,173.560272 
	C70.830864,231.385971 75.783257,288.995667 109.862137,344.313110 
	C110.794373,345.826263 111.763710,347.316620 113.201790,349.583893 
	C89.545929,349.583893 66.636528,349.583893 43.241772,349.662659 
	C37.346180,339.472504 33.573662,328.549622 30.146603,317.516052 
	C27.390879,308.643829 25.206778,299.613861 23.763361,290.414307 
	C23.003067,285.568604 22.118620,280.746277 22.074623,275.371613 
	C20.886700,271.968719 21.847248,268.876648 21.347416,265.472900 
	C17.950169,209.281525 32.388912,158.702667 65.977402,113.416061 
	C66.266342,112.814735 66.438812,112.550133 66.832268,112.146713 
	C66.986015,111.964088 67.002441,112.001289 66.983017,111.995255 
	C67.220596,111.790428 67.458687,111.571106 67.828850,111.140854 
	C67.979836,110.950447 68.001610,110.999008 67.976212,110.991089 
	C68.242088,110.764679 68.498108,110.510277 68.863251,109.991417 
	C69.002998,109.758163 69.034271,109.467827 69.082657,109.330070 
	C69.232071,108.866135 69.407059,108.586182 69.820053,108.164223 
	C69.984116,107.975990 70.001099,107.999687 69.988358,107.993042 
	C70.242516,107.783714 70.479828,107.550880 70.852882,107.100517 
	C71.508080,106.336739 71.997955,105.760345 72.753967,105.075333 
	C73.588310,104.506744 74.331947,104.233398 74.772102,103.237961 
	C76.007828,100.836227 77.289680,98.819016 79.517982,97.152405 
	C80.358429,96.641327 80.509911,96.056519 80.826546,95.218582 
	C81.004829,94.972572 81.011452,95.006104 80.994766,95.009827 
	C81.220497,94.793526 81.454834,94.565208 81.836227,94.138443 
	C81.991371,93.948303 82.001122,94.003220 81.973938,93.997017 
	C82.212616,93.796776 82.455933,93.577690 82.834282,93.144775 
	C82.991859,92.956001 83.003174,93.003410 82.979477,92.997726 
	C83.216255,92.794006 83.456818,92.574188 83.833427,92.144058 
	C83.989380,91.955536 84.001648,92.002609 83.978630,91.994736 
	C84.130768,91.834595 84.305923,91.682312 84.772903,91.340195 
	C96.162102,79.512215 108.751595,69.601723 121.610603,60.054619 
	C126.175423,56.665489 131.401062,54.166424 136.639877,51.111069 
	C137.422318,50.549641 138.051376,50.539207 138.791138,50.084587 
	C139.032272,49.558872 139.180801,49.318867 139.642944,49.073593 
	C140.986954,48.278313 142.525757,48.501328 143.755615,47.200096 
	C143.985870,46.952599 144.002060,46.999882 143.979141,46.989944 
	C144.414932,46.605160 144.978455,46.524918 145.784332,46.289490 
	C176.080307,30.255487 207.959442,21.363657 242.543320,20.982067 
	C247.359512,20.063040 251.752380,20.681515 256.559082,20.746857 
	C279.378021,21.528482 301.167419,25.610661 322.497681,32.261497 
	C332.939575,35.517307 343.363403,39.103764 352.967896,44.237549 
	C363.996948,50.132797 375.274536,55.614639 385.140167,63.744080 
	C392.047699,69.436020 399.953369,73.934258 405.921265,81.128479 
z"/>
<path fill="#597190" opacity="1.000000" stroke="none" 
	d="
M256.755707,20.581326 
	C252.639893,20.953396 248.286270,20.977015 243.470428,20.965744 
	C247.429611,19.114412 252.000473,20.190832 256.755707,20.581326 
z"/>
<path fill="#4973AE" opacity="1.000000" stroke="none" 
	d="
M21.150055,265.512695 
	C22.783417,267.947388 21.692417,271.063751 22.052664,274.485077 
	C19.776377,272.145905 21.488737,268.932281 21.150055,265.512695 
z"/>
<path fill="#305A98" opacity="1.000000" stroke="none" 
	d="
M143.640686,46.967590 
	C143.842255,49.214588 142.135223,48.962536 140.239746,49.019554 
	C140.648483,47.732979 142.059036,47.506481 143.640686,46.967590 
z"/>
<path fill="#315B94" opacity="1.000000" stroke="none" 
	d="
M74.665268,103.108032 
	C74.896767,103.903687 74.669144,104.667725 73.332893,104.927505 
	C73.480133,104.380798 73.940170,103.794876 74.665268,103.108032 
z"/>
<path fill="#3B5D93" opacity="1.000000" stroke="none" 
	d="
M80.738182,95.129227 
	C80.803535,95.560272 80.602242,96.147980 80.105164,96.873032 
	C80.030106,96.435547 80.250816,95.860710 80.738182,95.129227 
z"/>
<path fill="#305A98" opacity="1.000000" stroke="none" 
	d="
M138.690033,49.932030 
	C138.523499,50.223980 138.054199,50.581589 137.269806,50.950150 
	C137.432236,50.639965 137.909744,50.318829 138.690033,49.932030 
z"/>
<path fill="#305A98" opacity="1.000000" stroke="none" 
	d="
M145.722900,46.100067 
	C145.540314,46.439705 145.044815,46.719482 144.252777,46.989639 
	C144.190918,46.280190 144.727127,46.046772 145.722900,46.100067 
z"/>
<path fill="#3B5D93" opacity="1.000000" stroke="none" 
	d="
M84.790802,91.126938 
	C84.942932,91.470284 84.732819,91.714088 84.194992,91.934326 
	C84.142700,91.692413 84.329781,91.397964 84.790802,91.126938 
z"/>
<path fill="#3B5D93" opacity="1.000000" stroke="none" 
	d="
M83.726067,92.018570 
	C83.814301,92.250229 83.639221,92.544914 83.209961,92.915825 
	C83.124771,92.688568 83.293762,92.385086 83.726067,92.018570 
z"/>
<path fill="#3B5D93" opacity="1.000000" stroke="none" 
	d="
M82.731255,93.023666 
	C82.813583,93.250389 82.635300,93.544785 82.201889,93.914993 
	C82.121384,93.690987 82.296013,93.391159 82.731255,93.023666 
z"/>
<path fill="#3B5D93" opacity="1.000000" stroke="none" 
	d="
M81.733063,94.024963 
	C81.816910,94.240952 81.642456,94.533607 81.223038,94.919907 
	C81.143646,94.709572 81.309204,94.405594 81.733063,94.024963 
z"/>
<path fill="#315B94" opacity="1.000000" stroke="none" 
	d="
M70.757530,106.993851 
	C70.841011,107.215691 70.663811,107.518250 70.231117,107.903595 
	C70.149368,107.682449 70.323112,107.378517 70.757530,106.993851 
z"/>
<path fill="#315B94" opacity="1.000000" stroke="none" 
	d="
M69.711357,108.061966 
	C69.843323,108.282249 69.702530,108.588516 69.346382,109.043549 
	C69.233559,108.844185 69.336075,108.496063 69.711357,108.061966 
z"/>
<path fill="#315B94" opacity="1.000000" stroke="none" 
	d="
M68.741310,109.881744 
	C68.832779,110.096794 68.662560,110.435425 68.221573,110.878616 
	C68.127083,110.657227 68.303352,110.331284 68.741310,109.881744 
z"/>
<path fill="#315B94" opacity="1.000000" stroke="none" 
	d="
M67.715202,111.010506 
	C67.807083,111.242676 67.634331,111.534904 67.212585,111.908173 
	C67.125923,111.683006 67.288246,111.376785 67.715202,111.010506 
z"/>
<path fill="#315B94" opacity="1.000000" stroke="none" 
	d="
M66.727448,112.051666 
	C66.971840,112.314728 66.834137,112.607254 66.367004,112.982422 
	C66.263695,112.795197 66.366287,112.467224 66.727448,112.051666 
z"/>
</svg>